<svg width="521" height="209" viewBox="0 0 521 209" fill="none" xmlns="http://www.w3.org/2000/svg">
<mask id="mask0_16_2653" style="mask-type:alpha" maskUnits="userSpaceOnUse" x="0" y="0" width="521" height="209">
<rect width="521" height="209" rx="16" fill="#D9D9D9"/>
</mask>
<g mask="url(#mask0_16_2653)">
<path d="M135.085 178.766C135.085 182.352 134.698 185.094 133.925 186.992C133.222 188.82 132.237 189.734 130.972 189.734H118.843V214.414C118.843 215.117 118.632 215.75 118.21 216.312C117.788 216.805 117.05 217.227 115.995 217.578C114.94 217.93 113.569 218.176 111.882 218.316C110.194 218.527 108.015 218.633 105.343 218.633C102.812 218.633 100.667 218.527 98.9092 218.316C97.2217 218.176 95.8506 217.93 94.7959 217.578C93.8116 217.227 93.1084 216.805 92.6866 216.312C92.335 215.75 92.1592 215.117 92.1592 214.414V189.734H39.9522C38.9678 189.734 38.0889 189.629 37.3155 189.418C36.542 189.137 35.8741 188.574 35.3116 187.73C34.8194 186.816 34.4327 185.551 34.1514 183.934C33.9405 182.246 33.835 180.031 33.835 177.289C33.835 175.039 33.8702 173.105 33.9405 171.488C34.0811 169.801 34.2569 168.289 34.4678 166.953C34.7491 165.617 35.1006 164.352 35.5225 163.156C36.0147 161.961 36.6124 160.695 37.3155 159.359L79.7139 84.582C80.0655 83.9492 80.6631 83.4219 81.5069 83C82.3506 82.5078 83.5108 82.1211 84.9874 81.8398C86.5342 81.4883 88.4678 81.2422 90.7881 81.1016C93.1084 80.9609 95.9209 80.8906 99.2256 80.8906C102.812 80.8906 105.87 80.9961 108.401 81.207C110.933 81.3477 112.937 81.6289 114.413 82.0508C115.96 82.4023 117.085 82.8594 117.788 83.4219C118.491 83.9844 118.843 84.6523 118.843 85.4258V167.586H130.972C132.097 167.586 133.046 168.465 133.819 170.223C134.663 171.91 135.085 174.758 135.085 178.766ZM92.1592 104.832H91.9483L55.9834 167.586H92.1592V104.832ZM276.637 143.539C276.637 149.094 276.355 154.859 275.793 160.836C275.23 166.742 274.141 172.543 272.523 178.238C270.977 183.934 268.797 189.348 265.984 194.48C263.242 199.613 259.656 204.113 255.227 207.98C250.867 211.777 245.523 214.801 239.195 217.051C232.938 219.301 225.52 220.426 216.941 220.426C213.918 220.426 210.895 220.215 207.871 219.793C204.918 219.371 202.211 218.844 199.75 218.211C197.289 217.578 195.18 216.91 193.422 216.207C191.734 215.504 190.504 214.801 189.73 214.098C188.957 213.324 188.395 212.234 188.043 210.828C187.691 209.422 187.516 207.453 187.516 204.922C187.516 202.602 187.551 200.738 187.621 199.332C187.762 197.926 187.973 196.836 188.254 196.062C188.605 195.289 188.992 194.797 189.414 194.586C189.906 194.305 190.469 194.164 191.102 194.164C191.945 194.164 193.141 194.41 194.688 194.902C196.234 195.395 198.098 195.957 200.277 196.59C202.527 197.223 205.059 197.785 207.871 198.277C210.684 198.77 213.812 199.016 217.258 199.016C223.164 199.016 228.156 197.961 232.234 195.852C236.312 193.742 239.617 190.895 242.148 187.309C244.68 183.723 246.543 179.574 247.738 174.863C248.934 170.152 249.602 165.195 249.742 159.992C246.508 162.031 242.605 163.824 238.035 165.371C233.465 166.848 228.227 167.586 222.32 167.586C215.078 167.586 208.926 166.637 203.863 164.738C198.801 162.84 194.688 160.098 191.523 156.512C188.359 152.926 186.039 148.566 184.562 143.434C183.156 138.301 182.453 132.5 182.453 126.031C182.453 119.211 183.473 112.953 185.512 107.258C187.551 101.492 190.574 96.5352 194.582 92.3867C198.59 88.168 203.582 84.8984 209.559 82.5781C215.535 80.2578 222.461 79.0977 230.336 79.0977C236.664 79.0977 242.184 79.8359 246.895 81.3125C251.676 82.7891 255.754 84.8984 259.129 87.6406C262.574 90.3828 265.422 93.7227 267.672 97.6602C269.992 101.527 271.785 105.852 273.051 110.633C274.387 115.414 275.301 120.582 275.793 126.137C276.355 131.691 276.637 137.492 276.637 143.539ZM249.109 139.742C249.109 132.219 248.688 125.926 247.844 120.863C247 115.801 245.734 111.758 244.047 108.734C242.359 105.711 240.25 103.566 237.719 102.301C235.188 101.035 232.234 100.402 228.859 100.402C225.555 100.402 222.707 101 220.316 102.195C217.926 103.32 215.922 104.938 214.305 107.047C212.758 109.156 211.598 111.652 210.824 114.535C210.051 117.418 209.664 120.582 209.664 124.027C209.664 127.754 209.98 131.059 210.613 133.941C211.316 136.754 212.371 139.109 213.777 141.008C215.254 142.836 217.152 144.207 219.473 145.121C221.793 146.035 224.605 146.492 227.91 146.492C231.988 146.492 235.82 145.895 239.406 144.699C243.062 143.434 246.297 141.781 249.109 139.742ZM382.059 149.234C382.059 160.133 381.18 169.977 379.422 178.766C377.665 187.555 374.782 195.043 370.774 201.23C366.836 207.418 361.668 212.164 355.27 215.469C348.942 218.773 341.172 220.426 331.961 220.426C322.61 220.426 314.875 218.844 308.758 215.68C302.641 212.445 297.79 207.84 294.204 201.863C290.618 195.816 288.086 188.469 286.61 179.82C285.204 171.102 284.5 161.258 284.5 150.289C284.5 139.461 285.379 129.652 287.137 120.863C288.965 112.004 291.848 104.48 295.786 98.293C299.793 92.1055 304.961 87.3594 311.29 84.0547C317.688 80.75 325.458 79.0977 334.598 79.0977C343.95 79.0977 351.684 80.7148 357.801 83.9492C363.989 87.1133 368.875 91.7188 372.461 97.7656C376.047 103.742 378.543 111.09 379.95 119.809C381.356 128.457 382.059 138.266 382.059 149.234ZM354.11 150.605C354.11 144.137 353.934 138.441 353.583 133.52C353.231 128.527 352.668 124.203 351.895 120.547C351.192 116.891 350.278 113.797 349.153 111.266C348.098 108.734 346.797 106.73 345.25 105.254C343.704 103.707 341.946 102.617 339.977 101.984C338.008 101.352 335.829 101.035 333.438 101.035C329.29 101.035 325.844 102.055 323.102 104.094C320.43 106.062 318.286 109.051 316.668 113.059C315.122 117.066 314.032 122.059 313.399 128.035C312.766 134.012 312.45 140.973 312.45 148.918C312.45 158.621 312.836 166.672 313.61 173.07C314.383 179.398 315.579 184.461 317.196 188.258C318.883 191.984 321.028 194.621 323.629 196.168C326.231 197.645 329.36 198.383 333.016 198.383C335.758 198.383 338.184 197.961 340.293 197.117C342.403 196.203 344.231 194.867 345.778 193.109C347.395 191.352 348.731 189.137 349.786 186.465C350.84 183.793 351.684 180.699 352.317 177.184C353.02 173.668 353.477 169.695 353.688 165.266C353.969 160.836 354.11 155.949 354.11 150.605ZM485.056 149.234C485.056 160.133 484.177 169.977 482.419 178.766C480.661 187.555 477.778 195.043 473.77 201.23C469.833 207.418 464.665 212.164 458.267 215.469C451.938 218.773 444.169 220.426 434.958 220.426C425.606 220.426 417.872 218.844 411.755 215.68C405.638 212.445 400.786 207.84 397.2 201.863C393.614 195.816 391.083 188.469 389.606 179.82C388.2 171.102 387.497 161.258 387.497 150.289C387.497 139.461 388.376 129.652 390.134 120.863C391.962 112.004 394.845 104.48 398.782 98.293C402.79 92.1055 407.958 87.3594 414.286 84.0547C420.685 80.75 428.454 79.0977 437.595 79.0977C446.946 79.0977 454.681 80.7148 460.798 83.9492C466.985 87.1133 471.872 91.7188 475.458 97.7656C479.044 103.742 481.54 111.09 482.946 119.809C484.352 128.457 485.056 138.266 485.056 149.234ZM457.106 150.605C457.106 144.137 456.931 138.441 456.579 133.52C456.227 128.527 455.665 124.203 454.892 120.547C454.188 116.891 453.274 113.797 452.149 111.266C451.095 108.734 449.794 106.73 448.247 105.254C446.7 103.707 444.942 102.617 442.974 101.984C441.005 101.352 438.825 101.035 436.435 101.035C432.286 101.035 428.841 102.055 426.099 104.094C423.427 106.062 421.282 109.051 419.665 113.059C418.118 117.066 417.028 122.059 416.395 128.035C415.763 134.012 415.446 140.973 415.446 148.918C415.446 158.621 415.833 166.672 416.606 173.07C417.38 179.398 418.575 184.461 420.192 188.258C421.88 191.984 424.024 194.621 426.626 196.168C429.227 197.645 432.356 198.383 436.013 198.383C438.755 198.383 441.181 197.961 443.29 197.117C445.399 196.203 447.227 194.867 448.774 193.109C450.392 191.352 451.727 189.137 452.782 186.465C453.837 183.793 454.681 180.699 455.313 177.184C456.017 173.668 456.474 169.695 456.685 165.266C456.966 160.836 457.106 155.949 457.106 150.605Z" fill="#F2F2F2"/>
</g>
</svg>
