<svg width="42" height="34" viewBox="0 0 42 34" fill="none" xmlns="http://www.w3.org/2000/svg">
<path d="M30.167 31.6673H39.3337V28.0007C39.3337 24.9631 36.8712 22.5007 33.8337 22.5007C32.0817 22.5007 30.5211 23.3198 29.5139 24.596M30.167 31.6673H11.8337M30.167 31.6673V28.0007C30.167 26.7975 29.9352 25.6486 29.5139 24.596M11.8337 31.6673H2.66699V28.0007C2.66699 24.9631 5.12943 22.5007 8.16699 22.5007C9.91894 22.5007 11.4796 23.3198 12.4868 24.596M11.8337 31.6673V28.0007C11.8337 26.7975 12.0654 25.6486 12.4868 24.596M12.4868 24.596C13.8384 21.2192 17.1408 18.834 21.0003 18.834C24.8598 18.834 28.1622 21.2192 29.5139 24.596M26.5003 7.83398C26.5003 10.8716 24.0379 13.334 21.0003 13.334C17.9628 13.334 15.5003 10.8716 15.5003 7.83398C15.5003 4.79642 17.9628 2.33398 21.0003 2.33398C24.0379 2.33398 26.5003 4.79642 26.5003 7.83398ZM37.5003 13.334C37.5003 15.359 35.8587 17.0007 33.8337 17.0007C31.8086 17.0007 30.167 15.359 30.167 13.334C30.167 11.3089 31.8086 9.66732 33.8337 9.66732C35.8587 9.66732 37.5003 11.3089 37.5003 13.334ZM11.8337 13.334C11.8337 15.359 10.192 17.0007 8.16699 17.0007C6.14195 17.0007 4.50033 15.359 4.50033 13.334C4.50033 11.3089 6.14195 9.66732 8.16699 9.66732C10.192 9.66732 11.8337 11.3089 11.8337 13.334Z" stroke="#111827" stroke-width="3.66667" stroke-linecap="round" stroke-linejoin="round"/>
</svg>
