<svg width="38" height="37" viewBox="0 0 38 37" fill="none" xmlns="http://www.w3.org/2000/svg">
<path d="M17.2564 3.36551C17.8053 1.67652 20.1947 1.67652 20.7436 3.3655L23.5281 11.9343C23.7736 12.6897 24.4774 13.201 25.2716 13.2011L34.2815 13.2014C36.0575 13.2015 36.7959 15.474 35.3591 16.5179L28.0702 21.8141C27.4277 22.2809 27.1588 23.1084 27.4042 23.8637L30.1881 32.4327C30.7368 34.1218 28.8037 35.5262 27.3669 34.4824L20.0776 29.1868C19.435 28.72 18.565 28.72 17.9224 29.1868L10.6331 34.4824C9.19629 35.5262 7.26317 34.1218 7.8119 32.4327L10.5958 23.8637C10.8412 23.1084 10.5723 22.2809 9.92983 21.8141L2.64086 16.5179C1.20415 15.474 1.94253 13.2015 3.71845 13.2014L12.7284 13.2011C13.5226 13.201 14.2264 12.6897 14.4719 11.9343L17.2564 3.36551Z" stroke="#111827" stroke-width="3.66667"/>
</svg>
